<?xml version="1.0" encoding="UTF-8"?>
<svg xmlns="http://www.w3.org/2000/svg" xmlns:xlink="http://www.w3.org/1999/xlink" viewBox="0 0 50 50" width="50px" height="50px">
<g id="surface161937359">
<path style=" stroke:none;fill-rule:nonzero;fill:rgb(0%,15.294118%,29.803923%);fill-opacity:1;" d="M 24.953125 1.667969 C 24.417969 1.683594 23.925781 1.953125 23.621094 2.394531 L 10.289062 21.945312 C 10.019531 22.34375 9.929688 22.839844 10.050781 23.304688 C 10.171875 23.773438 10.492188 24.164062 10.921875 24.378906 L 24.253906 31.035156 C 24.722656 31.269531 25.277344 31.269531 25.746094 31.035156 L 39.078125 24.378906 C 39.507812 24.164062 39.828125 23.773438 39.949219 23.304688 C 40.070312 22.839844 39.980469 22.34375 39.710938 21.945312 L 26.375 2.394531 C 26.058594 1.925781 25.523438 1.652344 24.953125 1.667969 Z M 25 6.289062 L 25 18.332031 L 35.867188 22.257812 L 25 27.683594 L 25 18.332031 L 14.292969 21.988281 Z M 11.605469 28.332031 C 10.976562 28.355469 10.410156 28.730469 10.148438 29.304688 C 9.886719 29.878906 9.96875 30.550781 10.363281 31.042969 L 23.699219 47.707031 C 24.015625 48.105469 24.492188 48.335938 25 48.335938 C 25.507812 48.335938 25.984375 48.105469 26.300781 47.707031 L 39.636719 31.042969 C 40.125 30.429688 40.125 29.558594 39.632812 28.953125 C 39.136719 28.34375 38.289062 28.15625 37.589844 28.507812 L 25 34.804688 L 12.414062 28.507812 C 12.160156 28.382812 11.882812 28.324219 11.605469 28.332031 Z M 17.710938 34.886719 L 24.253906 38.15625 C 24.484375 38.273438 24.742188 38.332031 25 38.332031 L 25 43.996094 Z M 17.710938 34.886719 "/>
</g>
</svg>
