<?xml version="1.0" encoding="UTF-8"?>
<svg xmlns="http://www.w3.org/2000/svg" xmlns:xlink="http://www.w3.org/1999/xlink" viewBox="0 0 500 500" width="500px" height="500px">
<g id="surface201623591">
<path style=" stroke:none;fill-rule:nonzero;fill:rgb(0%,15.294118%,29.803923%);fill-opacity:1;" d="M 250 50 C 139.550781 50 50 139.550781 50 250 C 50 343.714844 114.535156 422.132812 201.535156 443.832031 C 200.601562 441.132812 200 438 200 434.117188 L 200 399.933594 C 191.882812 399.933594 178.285156 399.933594 174.867188 399.933594 C 161.183594 399.933594 149.015625 394.050781 143.117188 383.117188 C 136.566406 370.964844 135.433594 352.382812 119.199219 341.015625 C 114.382812 337.234375 118.050781 332.917969 123.601562 333.5 C 133.851562 336.398438 142.351562 343.433594 150.351562 353.867188 C 158.316406 364.316406 162.066406 366.683594 176.949219 366.683594 C 184.167969 366.683594 194.964844 366.265625 205.132812 364.667969 C 210.601562 350.785156 220.050781 338 231.601562 331.964844 C 165 325.117188 133.214844 291.984375 133.214844 247 C 133.214844 227.632812 141.464844 208.898438 155.484375 193.117188 C 150.882812 177.449219 145.101562 145.5 157.25 133.332031 C 187.214844 133.332031 205.332031 152.765625 209.683594 158.015625 C 224.617188 152.898438 241.015625 150 258.25 150 C 275.515625 150 291.984375 152.898438 306.949219 158.050781 C 311.25 152.832031 329.382812 133.332031 359.417969 133.332031 C 371.617188 145.515625 365.765625 177.601562 361.117188 193.234375 C 375.050781 208.984375 383.25 227.667969 383.25 247 C 383.25 291.949219 351.515625 325.066406 285.015625 331.949219 C 303.316406 341.5 316.667969 368.332031 316.667969 388.550781 L 316.667969 434.117188 C 316.667969 435.851562 316.285156 437.101562 316.082031 438.582031 C 394.015625 411.265625 450 337.265625 450 250 C 450 139.550781 360.449219 50 250 50 Z M 250 50 "/>
</g>
</svg>
