<?xml version="1.0" encoding="UTF-8"?>
<svg xmlns="http://www.w3.org/2000/svg" xmlns:xlink="http://www.w3.org/1999/xlink" viewBox="0 0 500 500" width="500px" height="500px">
<g id="surface201624577">
<path style=" stroke:none;fill-rule:nonzero;fill:rgb(0%,15.294118%,29.803923%);fill-opacity:1;" d="M 160 30 C 88.300781 30 30 88.300781 30 160 L 30 340 C 30 411.699219 88.300781 470 160 470 L 340 470 C 411.699219 470 470 411.699219 470 340 L 470 160 C 470 88.300781 411.699219 30 340 30 Z M 370 110 C 381 110 390 119 390 130 C 390 141 381 150 370 150 C 359 150 350 141 350 130 C 350 119 359 110 370 110 Z M 250 140 C 310.699219 140 360 189.300781 360 250 C 360 310.699219 310.699219 360 250 360 C 189.300781 360 140 310.699219 140 250 C 140 189.300781 189.300781 140 250 140 Z M 250 160 C 200.398438 160 160 200.398438 160 250 C 160 299.601562 200.398438 340 250 340 C 299.601562 340 340 299.601562 340 250 C 340 200.398438 299.601562 160 250 160 Z M 250 160 "/>
</g>
</svg>
