<?xml version="1.0" encoding="UTF-8"?>
<svg xmlns="http://www.w3.org/2000/svg" xmlns:xlink="http://www.w3.org/1999/xlink" viewBox="0 0 50 50" width="50px" height="50px">
<g id="surface151640706">
<path style=" stroke:none;fill-rule:nonzero;fill:rgb(0%,15.294118%,29.803923%);fill-opacity:1;" d="M 25 2 C 12.316406 2 2 12.316406 2 25 C 2 37.683594 12.316406 48 25 48 C 37.683594 48 48 37.683594 48 25 C 48 12.316406 37.683594 2 25 2 Z M 32 16 L 28.710938 16 C 26.773438 16 26 16.453125 26 17.804688 L 26 21 L 32 21 L 31 26 L 26 26 L 26 39 L 20 39 L 20 26 L 17 26 L 17 21 L 20 21 L 20 18.226562 C 20 14 21.6875 11 26.582031 11 C 29.203125 11 32 12 32 12 Z M 32 16 "/>
</g>
</svg>
